<svg xmlns="http://www.w3.org/2000/svg" width="132.895" height="132.9" viewBox="0 0 132.895 132.9">
    <g id="favicon" transform="translate(-191.75 -3569.92)">
        <path fill="#fff" d="M324.645,3593.61v13.429l-17.572,6.4-12.621,4.595-15.793,5.749-12.631,4.595-15.788,5.744v0l-12.626,4.595-15.793,5.744h0l-12.616,4.59L191.75,3655.4v-13.429l17.455-6.354,12.616-4.59v0l15.793-5.744,12.626-4.595v0l15.788-5.744,12.631-4.6,15.793-5.749L307.073,3600Z"/>
        <path fill="#d6a351" d="M-357.25,3136.445l12.615-4.6v48.37l-12.615,4.6Zm28.409-10.34,12.626-4.6v48.37l-12.626,4.594Zm28.414-10.34,12.632-4.6v48.37l-12.632,4.6ZM-272,3105.419l12.622-4.6V3149.2L-272,3153.79Zm-85.246-53.5h12.615v55.72l-12.615,4.59Zm28.409,0,12.626,0v45.38l-12.626,4.6Zm28.414,0H-287.8v35.031l-12.632,4.6Zm28.424,0h12.622v24.693L-272,3081.2Z"
              transform="translate(566.455 518)"/>
    </g>
</svg>
